# AST/ASF file generated using VICON BodyLanguage
# -----------------------------------------------
:version 1.10
:name VICON
:units
  mass 1.0
  length 0.45
  angle deg
:documentation
   .ast/.asf automatically generated from VICON data using
   VICON BodyBuilder and BodyLanguage model FoxedUp or BRILLIANT.MOD
:root
   order TX TY TZ RX RY RZ
   axis XYZ
   position 0 0 0  
   orientation 0 0 0 
:bonedata
  begin
     id 1 
     name lhipjoint
     direction 0.623415 -0.642378 0.445763 
     length 2.49859 
     axis 0 0 0  XYZ
  end
  begin
     id 2 
     name lfemur
     direction 0.34202 -0.939693 0  
     length 6.69689  
     axis 0 0 20  XYZ
    dof rx ry rz
    limits (-160.0 20.0)
           (-70.0 70.0)
           (-60.0 70.0)
  end
  begin
     id 3 
     name ltibia
     direction 0.34202 -0.939693 0   
     length 7.37574   
     axis 0 0 20   XYZ
    dof rx
    limits (-10.0 170.0)
  end
  begin
     id 4 
     name lfoot
     direction 0.084323 -0.231675 0.969132   
     length 2.09111   
     axis -90 7.62852e-016 20   XYZ
    dof rx rz
    limits (-45.0 90.0)
           (-70.0 20.0)
  end
  begin
     id 5 
     name ltoes
     direction 1.5357e-011 -4.21957e-011 1   
     length 1.04989   
     axis -90 7.62852e-016 20   XYZ
    dof rx
    limits (-90.0 20.0)
  end
  begin
     id 6 
     name rhipjoint
     direction -0.605402 -0.653903 0.45376   
     length 2.45455  
     axis 0 0 0  XYZ 
  end
  begin
     id 7 
     name rfemur
     direction -0.34202 -0.939693 0   
     length 6.64523   
     axis 0 0 -20   XYZ
    dof rx ry rz
    limits (-160.0 20.0)
           (-70.0 70.0)
           (-70.0 60.0)
  end
  begin
     id 8 
     name rtibia
     direction -0.34202 -0.939693 0   
     length 7.3339   
     axis 0 0 -20   XYZ
    dof rx
    limits (-10.0 170.0)
 end
 begin
     id 9 
     name rfoot
     direction -0.120854 -0.332043 0.93549   
     length 2.23135  
     axis -90 -7.62852e-016 -20   XYZ
    dof rx rz
    limits (-45.0 90.0)
           (-20.0 70.0)
  end
  begin
     id 10 
     name rtoes
     direction -1.53563e-011 -4.21914e-011 1   
     length 1.10614   
     axis -90 -7.62852e-016 -20   XYZ
    dof rx
    limits (-90.0 20.0)
  end
  begin
     id 11 
     name lowerback
     direction 0.0319682 0.998615 -0.0417941   
     length 2.02718   
     axis 0 0 0   XYZ
    dof rx ry rz
    limits (-20.0 45.0)
           (-30.0 30.0)
           (-30.0 30.0)
  end
  begin
     id 12 
     name upperback
     direction 7.63181e-005 0.995808 0.0914691   
     length 1.97539   
     axis 0 0 0   XYZ
    dof rx ry rz
    limits (-20.0 45.0)
           (-30.0 30.0)
           (-30.0 30.0)
  end
  begin
     id 13 
     name thorax
     direction -0.016423 0.993627 0.111514   
     length 2.00349   
     axis 0 0 0   XYZ
    dof rx ry rz
    limits (-20.0 45.0)
           (-30.0 30.0)
           (-30.0 30.0)
  end
  begin
     id 14 
     name lowerneck
     direction -0.174763 0.981668 -0.0760716   
     length 1.71436   
     axis 0 0 0   XYZ
    dof rx ry rz
    limits (-20.0 45.0)
           (-30.0 30.0)
           (-30.0 30.0)
  end
  begin
     id 15 
     name upperneck
     direction 0.345458 0.934587 -0.0848868   
     length 1.72805   
     axis 0 0 0   XYZ
    dof rx ry rz
    limits (-20.0 45.0)
           (-30.0 30.0)
           (-30.0 30.0)
  end
  begin
     id 16
     name head
     direction 0.13001 0.989848 -0.0574291  
     length 1.767  
     axis 0 0 0   XYZ
    dof rx ry rz
    limits (-20.0 45.0)
           (-30.0 30.0)
           (-30.0 30.0)
  end
  begin
     id 17 
     name lclavicle
     direction 0.952951 0.290122 0.0878234  
     length 3.54654  
     axis 0 0 0   XYZ
    dof ry rz
    limits (-20.0 10.0)
           (0.0 20.0)
  end
  begin
     id 18 
     name lhumerus
     direction 1 -4.48957e-011 -4.56525e-028   
     length 5.19807   
     axis 180 -30 -90   XYZ
    dof rx ry rz
    limits (-60.0 90.0)
           (-90.0 90.0)
           (-90.0 90.0)
  end
  begin
     id 19
     name lradius
     direction 1 -4.48979e-011 -2.0317e-027   
     length 3.0937   
     axis 180 -30 -90   XYZ
    dof rx
    limits (-10.0 170.0)
  end
  begin
     id 20
     name lwrist
     direction 1 -4.48953e-011 -3.05809e-027   
     length 1.54685   
     axis 8.48514e-016 90 90   XYZ
    dof ry
    limits (-180.0 0.0)
 end
  begin
     id 21 
     name lhand
     direction 1 -4.48952e-011 -6.11639e-027   
     length 0.672632   
     axis 3.9013e-015 90 90   XYZ
    dof rx rz
    limits (-90.0 90.0)
           (-45.0 45.0)
  end
  begin
     id 22 
     name lfingers
     direction 1 -4.48925e-011 -1.22426e-026   
     length 0.542293   
     axis 7.80276e-015 90 90   XYZ
    dof rx
    limits (0.0 90.0)
  end
  begin
     id 23
     name lthumb
     direction 0.707107 -6.3486e-011 0.707107   
     length 0.778628   
     axis -90 45 5.37419e-014   XYZ
    dof rx rz
    limits (-45.0 45.0)
           (-45.0 45.0)
  end
  begin
     id 24 
     name rclavicle
     direction -0.960732 0.273675 -0.0457849   
     length 3.52079  
     axis 0 0 0   XYZ 
    dof ry rz
    limits (-10.0 20.0)
           (-20.0 0.0)
  end
  begin
     id 25 
     name rhumerus
     direction -1 -4.48976e-011 -1.63613e-027  
     length 5.45222   
     axis 180 30 90   XYZ
    dof rx ry rz
    limits (-90.0 60.0)
           (-90.0 90.0)
           (-90.0 90.0)
  end
  begin
     id 26 
     name rradius
     direction -1 -4.48957e-011 -7.00033e-028   
     length 3.01284   
     axis 180 30 90   XYZ
    dof rx
    limits (-10.0 170.0)
  end
  begin
     id 27 
     name rwrist
     direction -1 -4.48983e-011 -3.05543e-027   
     length 1.50642   
     axis 8.48514e-016 -90 -90   XYZ
    dof ry
    limits (-180.0 0.0)
  end
  begin
     id 28
     name rhand
     direction -1 -4.48984e-011 -6.11072e-027   
     length 0.622296   
     axis 3.9013e-015 -90 -90   XYZ
    dof rx rz
    limits (-90.0 90.0)
           (-45.0 45.0)
  end
  begin
     id 29
     name rfingers
     direction -1 -4.48865e-011 -1.22637e-026   
     length 0.501711   
     axis 7.80276e-015 -90 -90   XYZ
    dof rx
    limits (0.0 90.0)
  end
  begin
     id 30
     name rthumb
     direction -0.707107 -6.34932e-011 0.707107   
     length 0.72036   
     axis -90 -45 -5.37419e-014   XYZ
    dof rx rz
    limits (-45.0 45.0)
           (-45.0 45.0)
  end
:hierarchy
  begin
    root lhipjoint rhipjoint lowerback
    lhipjoint lfemur
    lfemur ltibia
    ltibia lfoot
    lfoot ltoes
    rhipjoint rfemur
    rfemur rtibia
    rtibia rfoot
    rfoot rtoes
    lowerback upperback
    upperback thorax
    thorax lowerneck lclavicle rclavicle
    lowerneck upperneck
    upperneck head
    lclavicle lhumerus
    lhumerus lradius
    lradius lwrist
    lwrist lhand lthumb
    lhand lfingers
    rclavicle rhumerus
    rhumerus rradius
    rradius rwrist
    rwrist rhand rthumb
    rhand rfingers
  end

#!OML:ASF H:\Not Pregnant\Project 1\Capture day 1\Session 1\non-pregnant.ASF
:FULLY-SPECIFIED
:DEGREES
484
root 5.35893 11.4853 12.3046 98.0096 7.03723 -2.16426
lowerback 30.1212 2.07278 -7.97125
upperback -4.99724 1.21264 6.85636
thorax -22.9718 2.29606 12.1502
lowerneck 21.2979 -5.47174 -37.0855
upperneck 2.77255 -15.1903 37.9459
head 3.61781 -9.83502 21.5774
rclavicle -1.35174e-014 3.85642e-014
rhumerus 77.5436 1.53161 -48.8695
rradius 29.3772
rwrist 21.4225
rhand -48.6943 -10.2579
rfingers 7.12502
rthumb -21.3354 -39.1034
lclavicle -1.35174e-014 3.85642e-014
lhumerus 57.541 3.85142 31.1444
lradius 37.1688
lwrist 23.7194
lhand -41.8085 -47.1644
lfingers 7.12502
lthumb -14.7107 -17.7063
rfemur -69.5767 -4.37481 38.22
rtibia 36.4762
rfoot -43.7618 24.0543
rtoes -9.56935
lfemur -72.5342 -3.51405 -5.84531
ltibia 44.0816
lfoot -40.3279 13.1083
ltoes -44.0863
485
root 5.37013 11.4841 12.2958 98.0922 7.04828 -2.19953
lowerback 30.3185 2.01142 -7.75777
upperback -4.99473 1.17844 6.75706
thorax -23.0461 2.24443 11.9183
lowerneck 21.2371 -5.44993 -37.2169
upperneck 3.06085 -15.2104 37.8737
head 3.72372 -9.84083 21.5677
rclavicle 5.56597e-015 4.11484e-014
rhumerus 77.7708 1.31521 -48.7545
rradius 29.5172
rwrist 21.2599
rhand -48.5438 -10.5203
rfingers 7.12502
rthumb -21.1909 -39.3821
lclavicle 5.56597e-015 4.11484e-014
lhumerus 57.5441 4.1522 30.6888
lradius 37.4746
lwrist 24.4369
lhand -41.2827 -47.0421
lfingers 7.12502
lthumb -14.204 -17.5478
rfemur -69.6653 -4.36209 38.2725
rtibia 36.4329
rfoot -43.9353 23.8501
rtoes -9.92666
lfemur -72.6648 -3.48122 -5.89111
ltibia 44.1166
lfoot -40.4049 13.1754
ltoes -44.0261
486
root 5.38168 11.483 12.2865 98.1662 7.08546 -2.24204
lowerback 30.5368 1.96207 -7.53754
upperback -4.99952 1.16735 6.67477
thorax -23.1507 2.20577 11.6948
lowerneck 21.2387 -5.40064 -37.3517
upperneck 3.2612 -15.1988 37.8095
head 3.7807 -9.83448 21.5706
rclavicle -1.43125e-014 1.64991e-014
rhumerus 77.9776 1.09867 -48.6264
rradius 29.6548
rwrist 21.106
rhand -48.3969 -10.7766
rfingers 7.12502
rthumb -21.0497 -39.6541
lclavicle -1.43125e-014 1.64991e-014
lhumerus 57.5659 4.41985 30.2127
lradius 37.73
lwrist 25.1158
lhand -40.8679 -46.9675
lfingers 7.12502
lthumb -13.8043 -17.4455
rfemur -69.7355 -4.32746 38.3356
rtibia 36.3813
rfoot -44.1027 23.6197
rtoes -10.2796
lfemur -72.7899 -3.43671 -5.91136
ltibia 44.159
lfoot -40.4863 13.2473
ltoes -43.9833
487
root 5.39356 11.4822 12.2764 98.2508 7.13457 -2.28206
lowerback 30.7617 1.91492 -7.31316
upperback -5.02243 1.16476 6.60363
thorax -23.2879 2.17459 11.4814
lowerneck 21.275 -5.32629 -37.5058
upperneck 3.42973 -15.1635 37.7507
head 3.81423 -9.81892 21.5872
rclavicle -2.62396e-014 2.127e-014
rhumerus 78.1607 0.89669 -48.4975
rradius 29.7894
rwrist 20.9587
rhand -48.2491 -10.9997
rfingers 7.12502
rthumb -20.9077 -39.893
lclavicle -2.62396e-014 2.127e-014
lhumerus 57.5955 4.65105 29.7338
lradius 37.9265
lwrist 25.6846
lhand -40.5947 -46.931
lfingers 7.12502
lthumb -13.541 -17.3913
rfemur -69.8179 -4.27182 38.3917
rtibia 36.3298
rfoot -44.2619 23.3521
rtoes -10.6384
lfemur -72.9314 -3.38917 -5.91804
ltibia 44.2009
lfoot -40.5559 13.3579
ltoes -43.9948
488
root 5.4057 11.4824 12.2656 98.3522 7.18853 -2.31619
lowerback 30.9823 1.86616 -7.08792
upperback -5.06366 1.16439 6.5418
thorax -23.4501 2.14795 11.2806
lowerneck 21.3383 -5.22679 -37.6886
upperneck 3.57212 -15.1062 37.705
head 3.82997 -9.79551 21.6241
rclavicle 7.15625e-015 -1.72943e-014
rhumerus 78.3222 0.714182 -48.3748
rradius 29.9227
rwrist 20.8193
rhand -48.1086 -11.1837
rfingers 7.12502
rthumb -20.7728 -40.0918
lclavicle 7.15625e-015 -1.72943e-014
lhumerus 57.6302 4.85108 29.2679
lradius 38.064
lwrist 26.1188
lhand -40.4626 -46.913
lfingers 7.12502
lthumb -13.4137 -17.3648
rfemur -69.9263 -4.20235 38.4397
rtibia 36.2846
rfoot -44.4096 23.0577
rtoes -10.9934
lfemur -73.0942 -3.3411 -5.91674
ltibia 44.2358
lfoot -40.6228 13.4533
ltoes -43.9987
489
root 5.41794 11.4833 12.254 98.4619 7.24614 -2.35066
lowerback 31.201 1.81578 -6.86422
upperback -5.11595 1.16429 6.48621
thorax -23.628 2.12372 11.0898
lowerneck 21.3872 -5.11851 -37.901
upperneck 3.73889 -15.0443 37.661
head 3.85619 -9.76999 21.6702
rclavicle -3.10104e-014 -8.54774e-015
rhumerus 78.4729 0.548615 -48.2666
rradius 30.0562
rwrist 20.6848
rhand -47.9607 -11.3406
rfingers 7.12502
rthumb -20.6307 -40.2642
lclavicle -3.10104e-014 -8.54774e-015
lhumerus 57.6697 5.0384 28.8303
lradius 38.1528
lwrist 26.4404
lhand -40.4197 -46.9027
lfingers 7.12502
lthumb -13.3724 -17.3519
rfemur -70.0521 -4.11897 38.4813
rtibia 36.251
rfoot -44.5557 22.737
rtoes -11.3644
lfemur -73.2661 -3.28785 -5.90997
ltibia 44.2594
lfoot -40.6876 13.5322
ltoes -43.99
490
root 5.43041 11.485 12.2418 98.5791 7.29846 -2.37993
lowerback 31.4095 1.76107 -6.64591
upperback -5.17137 1.15863 6.43403
thorax -23.8041 2.09814 10.9096
lowerneck 21.4036 -5.01201 -38.1381
upperneck 3.93858 -14.9864 37.616
head 3.90175 -9.74547 21.72
rclavicle 8.74653e-015 1.21259e-014
rhumerus 78.6265 0.390935 -48.1821
rradius 30.1877
rwrist 20.5651
rhand -47.8042 -11.4789
rfingers 7.12502
rthumb -20.4803 -40.4187
lclavicle 8.74653e-015 1.21259e-014
lhumerus 57.7187 5.23196 28.4309
lradius 38.206
lwrist 26.6883
lhand -40.4194 -46.882
lfingers 7.12502
lthumb -13.372 -17.3311
rfemur -70.1977 -4.02609 38.5018
rtibia 36.2319
rfoot -44.6998 22.3852
rtoes -11.7501
lfemur -73.4453 -3.23754 -5.9063
ltibia 44.2681
lfoot -40.756 13.5665
ltoes -43.938
491
root 5.44299 11.4876 12.2293 98.6918 7.33213 -2.40967
lowerback 31.6089 1.70706 -6.44913
upperback -5.21709 1.14574 6.38009
thorax -23.9604 2.07029 10.7424
lowerneck 21.3706 -4.92123 -38.3859
upperneck 4.17167 -14.9422 37.566
head 3.97252 -9.72525 21.7645
rclavicle 4.77083e-015 -1.78906e-015
rhumerus 78.7995 0.226147 -48.119
rradius 30.3133
rwrist 20.4517
rhand -47.6416 -11.6163
rfingers 7.12502
rthumb -20.324 -40.5729
lclavicle 4.77083e-015 -1.78906e-015
lhumerus 57.7852 5.4518 28.0808
lradius 38.2363
lwrist 26.8861
lhand -40.4267 -46.8485
lfingers 7.12502
lthumb -13.379 -17.2981
rfemur -70.3526 -3.93871 38.5021
rtibia 36.2286
rfoot -44.8444 22.0295
rtoes -12.144
lfemur -73.6153 -3.19075 -5.92129
ltibia 44.2607
lfoot -40.831 13.5555
ltoes -43.8387
492
root 5.45578 11.491 12.2165 98.8026 7.34597 -2.43425
lowerback 31.7959 1.6515 -6.27135
upperback -5.25005 1.12297 6.32267
thorax -24.0897 2.0381 10.5853
lowerneck 21.3024 -4.84784 -38.6318
upperneck 4.40882 -14.9106 37.5174
head 4.05678 -9.70969 21.8049
rclavicle -3.02153e-014 -6.55989e-015
rhumerus 79.0012 0.0454519 -48.0732
rradius 30.4258
rwrist 20.3376
rhand -47.4708 -11.7539
rfingers 7.12502
rthumb -20.1598 -40.7278
lclavicle -3.02153e-014 -6.55989e-015
lhumerus 57.8734 5.71052 27.7864
lradius 38.254
lwrist 27.0567
lhand -40.3981 -46.7895
lfingers 7.12502
lthumb -13.3515 -17.2373
rfemur -70.5212 -3.86289 38.4816
rtibia 36.2425
rfoot -44.9934 21.667
rtoes -12.5614
lfemur -73.778 -3.15351 -5.95549
ltibia 44.235
lfoot -40.9049 13.513
ltoes -43.7145
493
root 5.46871 11.4951 12.2034 98.9096 7.33652 -2.45157
lowerback 31.973 1.59542 -6.11633
upperback -5.26868 1.08938 6.26023
thorax -24.1909 2.00157 10.4392
lowerneck 21.2138 -4.79262 -38.8635
upperneck 4.63139 -14.8914 37.4726
head 4.14557 -9.69929 21.8398
rclavicle 4.77083e-015 3.93594e-014
rhumerus 79.2337 -0.155221 -48.046
rradius 30.5194
rwrist 20.2279
rhand -47.2975 -11.9003
rfingers 7.12502
rthumb -19.9933 -40.8917
lclavicle 4.77083e-015 3.93594e-014
lhumerus 57.983 6.00832 27.5503
lradius 38.2666
lwrist 27.1902
lhand -40.3457 -46.7
lfingers 7.12502
lthumb -13.301 -17.1444
rfemur -70.7028 -3.8027 38.4364
rtibia 36.2735
rfoot -45.144 21.3039
rtoes -12.987
lfemur -73.9312 -3.12993 -6.01271
ltibia 44.1907
lfoot -40.9755 13.4564
ltoes -43.5863
